<svg xmlns="http://www.w3.org/2000/svg" width="33" height="27" fill="none"><path fill="#00529C" fill-rule="evenodd" d="M31.153 22.853c-1.426 2.18-3.83 3.369-6.281 3.369a7.489 7.489 0 0 1-4.617-1.587H2.323a1.55 1.55 0 0 1-1.558-1.538V2.253A1.55 1.55 0 0 1 2.323.714h5.535c.9 0 1.765.27 2.502.779l4.902 3.39h14.493c.859 0 1.557.69 1.557 1.538v8.338c0 .09-.03.169-.072.241 1.449 2.344 1.52 5.396-.087 7.853Zm-.846-16.432a.55.55 0 0 0-.552-.545H15.104a.509.509 0 0 1-.288-.09L9.784 2.307a3.364 3.364 0 0 0-1.926-.6H2.323a.55.55 0 0 0-.553.546v20.844a.55.55 0 0 0 .553.546h16.89a7.33 7.33 0 0 1-1.55-2.922 7.313 7.313 0 0 1 .951-5.874c2.234-3.415 6.864-4.398 10.322-2.19.515.328.968.715 1.371 1.137V6.421ZM28.39 13.49a6.48 6.48 0 0 0-3.496-1.02c-2.121 0-4.201 1.029-5.436 2.916a6.332 6.332 0 0 0 1.919 8.823c2.991 1.91 6.998 1.06 8.932-1.895 1.934-2.955 1.073-6.914-1.919-8.824Zm-.025 5.856h-2.979v2.943a.5.5 0 0 1-.502.496.5.5 0 0 1-.503-.496v-2.943h-2.979a.5.5 0 0 1-.503-.496.5.5 0 0 1 .503-.496h2.979V15.41a.5.5 0 0 1 .503-.496.5.5 0 0 1 .502.496v2.944h2.979a.5.5 0 0 1 .503.496.5.5 0 0 1-.503.496Z" clip-rule="evenodd"/></svg>