<svg xmlns="http://www.w3.org/2000/svg" width="318" height="300" fill="none"><g clip-path="url(#a)"><path fill="#5AAA1B" d="m16.46 143.3-9.11-20.28 24.1 3.04-14.99 17.25v-.01Zm-4.19-16.64 5 11.13 8.23-9.46-13.23-1.67Z"/><path fill="#2D6BB5" d="m277.96 124.79-2.62-1.46 6.12-11.04 10.71 5.22 2.95-24.1L312.55 114l-2.29 1.94-13-15.36-2.63 21.47-11.93-5.81-4.74 8.55ZM147.74 17.34c-4.78 0-8.67-3.89-8.67-8.67 0-4.78 3.89-8.67 8.67-8.67 4.78 0 8.67 3.89 8.67 8.67 0 4.78-3.89 8.67-8.67 8.67Zm0-14.34c-3.13 0-5.67 2.54-5.67 5.67s2.54 5.67 5.67 5.67 5.67-2.54 5.67-5.67S150.87 3 147.74 3Z"/><path fill="#5AAA1B" d="M299.14 178.66c-4.78 0-8.67-3.89-8.67-8.67 0-4.78 3.89-8.67 8.67-8.67 4.78 0 8.67 3.89 8.67 8.67 0 4.78-3.89 8.67-8.67 8.67Zm0-14.34c-3.13 0-5.67 2.54-5.67 5.67s2.54 5.67 5.67 5.67 5.67-2.54 5.67-5.67-2.54-5.67-5.67-5.67Z"/><path fill="#2D6BB5" d="M37.34 192.13c-4.78 0-8.67-3.89-8.67-8.67 0-4.78 3.89-8.67 8.67-8.67 4.78 0 8.67 3.89 8.67 8.67 0 4.78-3.89 8.67-8.67 8.67Zm0-14.34c-3.13 0-5.67 2.54-5.67 5.67s2.54 5.67 5.67 5.67 5.67-2.54 5.67-5.67-2.54-5.67-5.67-5.67ZM72.57 262.09H2.53v3h70.04v-3Z"/><path fill="#5AAA1B" d="M78.78 274.72H0v-59.51h62.29v3H3v53.51h72.78v-35.8h3v38.8ZM49.63 287.39H30.41v-9.02h3v6.02h13.22v-6.02h3v9.02ZM57 292.75H23.55v3H57v-3ZM317.72 292.58h-87.31v-38.76h3v35.76h81.31v-57.23h-67.85v-3h70.85v63.23Z"/><path fill="#2D6BB5" d="m287.595 262.734-2.121 2.121 21.312 21.312 2.121-2.121-21.312-21.312ZM260.813 262.176l-21.263 21.263 2.122 2.121 21.262-21.262-2.121-2.122ZM274.09 271.18h-.07a4.698 4.698 0 0 1-3.33-1.44l-23.6-24.44 2.16-2.08 23.59 24.43c.32.33.76.52 1.22.53.5 0 .91-.17 1.24-.49l31.64-30.8 2.09 2.15-31.64 30.8c-.89.87-2.07 1.34-3.31 1.34h.01Z"/><path fill="#5AAA1B" d="M277.95 205.17h-3v9.6h3v-9.6ZM253.742 211.141l-2.33 1.889 5.875 7.248 2.331-1.889-5.876-7.248ZM299.151 211.135l-5.875 7.248 2.33 1.889 5.876-7.247-2.331-1.89ZM90.44 82.73H33.69v3h56.75v-3Z"/><path fill="#5AAA1B" d="M33.04 85.94c-3.34 0-6.06-2.72-6.06-6.06V41.2h3v38.68c0 1.69 1.38 3.06 3.06 3.06 1.68 0 3.06-1.38 3.06-3.06V27.96h42.72l10.01-10.43h24.6v49.14h-3V20.53H90.11L80.1 30.96h-41v48.91c0 3.34-2.72 6.06-6.06 6.06v.01Z"/><path fill="#2D6BB5" d="M95.47 51.24h-4v-3h4v3Zm-8 0h-4v-3h4v3Zm-8 0h-4v-3h4v3Zm-8 0h-4v-3h4v3Zm-8 0h-4v-3h4v3ZM90.45 62.84H60.44v3h30.01v-3Z"/><path fill="#5AAA1B" d="m234.04 92.2-1.4-2.65.7 1.33-.7-1.32c.16-.09 16.06-8.94 16.99-38.36.89-27.8-16.48-41.03-16.66-41.16l1.78-2.41c.77.57 18.81 14.22 17.88 43.67-.99 31.28-17.87 40.53-18.59 40.91v-.01ZM211.69 77.14c-3.45-7.25-5.36-15.89-5.67-25.68-.94-29.56 17.1-43.27 17.87-43.84l1.79 2.41c-.17.13-17.55 13.41-16.66 41.33.3 9.38 2.11 17.61 5.38 24.49l-2.71 1.29Z"/><path fill="#5AAA1B" d="M267.14 61.53h-58.25v3h58.25v-3ZM267.32 33.68h-57.94v3h57.94v-3Z"/><path fill="#5AAA1B" d="M229.05 92.37h-1.51l.45-72.97 3 .02-.43 69.92c21.16-.8 38.12-18.26 38.12-39.61 0-21.35-17.78-39.63-39.63-39.63s-39.63 17.78-39.63 39.63c0 5.11.96 10.09 2.85 14.79l-2.78 1.12a42.337 42.337 0 0 1-3.07-15.91c0-23.51 19.13-42.63 42.63-42.63 23.5 0 42.63 19.13 42.63 42.63 0 23.5-19.13 42.64-42.63 42.64Z"/><path fill="#00529C" d="M114.26 243.79c-12.74-10.37-23.01-24.35-29.73-40.44-7.23-17.31-8.87-35.88-6.51-55.73l.03-.24 3.16-31.39c16.65-1.11 50.33-7.52 69.75-39.78h5.23c16.54 33.28 55.05 39.06 72.97 39.88l3.16 31.54.03.24c2.34 19.78.72 37.23-6.45 54.5-6.67 16.01-16.9 29.98-29.58 40.38l-40.89 33.94-41.16-32.91-.01.01Z"/><path fill="#2D6BB5" d="m155.46 299.19-50.01-40.78c-16.67-13.6-29.86-30.67-37.13-48.06-8.3-19.87-11.19-43-8.35-66.89l4.33-45.82 1.5.15c.53.05 53.78 4.79 76.1-41.08l.41-.84h23.34l.35 1.01c15.82 45.9 77.93 40.97 78.56 40.91l1.49-.13 4.35 46.12c2.81 23.78-.06 46.84-8.31 66.64-7.22 17.33-20.33 34.38-36.94 48l-49.7 40.77h.01Zm-88.44-198.3-4.06 42.89c-2.78 23.41.03 46.02 8.13 65.41 7.08 16.94 19.95 33.6 36.25 46.89l48.11 39.23 47.81-39.22c16.23-13.31 29.04-29.94 36.07-46.83 8.05-19.33 10.85-41.87 8.09-65.17l-4.08-43.21c-4.4.24-17.86.53-32.92-3.27-23.63-5.96-39.82-19.35-46.89-38.74h-19.34c-12.21 24.37-32.79 34.49-47.98 38.68-13.61 3.76-25.17 3.57-29.19 3.34Z"/><path fill="#fff" d="m152.36 203.64-28-28 10.04-10.03 17.96 17.96 33.45-33.44 10.03 10.03-43.48 43.48ZM157.04 233c-.66 0-1.32-.01-1.97-.03l.1-3c1.28.04 2.58.04 3.86 0l.11 3c-.7.03-1.4.04-2.1.04V233Zm-6.03-.31a55.73 55.73 0 0 1-4.03-.56l.51-2.96c1.27.22 2.55.4 3.82.53l-.31 2.98.01.01Zm12.19-.01-.31-2.98c1.27-.13 2.55-.31 3.82-.54l.52 2.96c-1.34.24-2.7.42-4.03.56ZM143 231.3c-1.31-.32-2.63-.7-3.92-1.11l.92-2.86c1.22.39 2.47.75 3.71 1.06l-.72 2.91h.01Zm28.21-.03-.73-2.91c1.24-.31 2.49-.67 3.71-1.07l.93 2.85c-1.28.42-2.6.79-3.91 1.12v.01Zm-35.96-2.47a56.18 56.18 0 0 1-3.72-1.66l1.31-2.7c1.15.56 2.34 1.09 3.53 1.57l-1.12 2.78v.01Zm43.7-.05-1.13-2.78a58.08 58.08 0 0 0 3.52-1.57l1.32 2.7a64.59 64.59 0 0 1-3.71 1.66v-.01Zm-51.02-3.52c-1.18-.68-2.34-1.41-3.46-2.16l1.68-2.49c1.06.71 2.16 1.4 3.28 2.05l-1.5 2.6Zm58.33-.05-1.5-2.6c1.11-.64 2.21-1.33 3.27-2.05l1.68 2.48c-1.12.76-2.28 1.48-3.45 2.16v.01Zm-65.08-4.5a60.67 60.67 0 0 1-3.12-2.61l2.01-2.23c.95.85 1.95 1.69 2.96 2.48l-1.85 2.37v-.01Zm71.81-.06-1.85-2.36c1-.79 2-1.62 2.95-2.48l2.01 2.23c-1.01.91-2.05 1.79-3.12 2.62l.01-.01Zm-77.86-5.38c-.94-.97-1.86-1.99-2.73-3.02l2.29-1.93c.83.98 1.7 1.94 2.59 2.86l-2.15 2.09Zm83.91-.07-2.16-2.08c.89-.92 1.76-1.89 2.58-2.87l2.3 1.93a65.24 65.24 0 0 1-2.72 3.03v-.01Zm-89.15-6.16c-.79-1.09-1.56-2.22-2.28-3.37l2.54-1.6c.68 1.09 1.41 2.16 2.17 3.19L109.9 209l-.01.01Zm94.38-.08-2.43-1.76a56.04 56.04 0 0 0 2.16-3.2l2.54 1.59c-.71 1.14-1.48 2.28-2.28 3.37h.01Zm-98.71-6.81a58.72 58.72 0 0 1-1.79-3.65l2.74-1.23c.53 1.17 1.1 2.34 1.7 3.46l-2.65 1.41v.01Zm103.02-.09-2.65-1.41c.6-1.13 1.17-2.3 1.7-3.47l2.74 1.22c-.55 1.23-1.15 2.47-1.79 3.66Zm-106.35-7.32a52.92 52.92 0 0 1-1.26-3.87l2.88-.83c.35 1.23.76 2.46 1.2 3.67l-2.82 1.03Zm109.66-.12-2.82-1.03c.44-1.2.84-2.44 1.19-3.67l2.88.83c-.37 1.3-.79 2.6-1.26 3.87h.01Zm-111.91-7.7c-.28-1.33-.52-2.67-.71-4.01l2.97-.42c.18 1.26.4 2.54.67 3.8l-2.93.63Zm114.15-.12-2.94-.62c.26-1.25.49-2.53.67-3.8l2.97.41a59.99 59.99 0 0 1-.7 4.01Zm-115.29-7.93c-.1-1.35-.15-2.72-.15-4.07h3c0 1.27.05 2.57.14 3.86l-2.99.21Zm116.41-.12-2.99-.21c.09-1.28.13-2.58.13-3.86v-.24h3v.24c0 1.35-.05 2.72-.14 4.06v.01Zm-113.43-7.81-2.99-.2c.09-1.35.23-2.71.41-4.05l2.97.41c-.17 1.27-.3 2.56-.39 3.84Zm110.42-.35c-.09-1.28-.23-2.57-.41-3.84l2.97-.43c.19 1.34.34 2.7.44 4.05l-2.99.22h-.01Zm-109.38-7.3-2.94-.61c.28-1.32.6-2.65.97-3.95l2.89.82c-.35 1.23-.66 2.49-.92 3.75v-.01Zm108.28-.34c-.27-1.26-.59-2.52-.95-3.74l2.88-.84c.38 1.29.71 2.62 1 3.95l-2.93.63Zm-106.18-7.08-2.82-1.02c.46-1.27.97-2.54 1.52-3.78l2.74 1.22a50.69 50.69 0 0 0-1.44 3.59v-.01Zm104.02-.33c-.44-1.2-.93-2.4-1.46-3.57l2.73-1.23c.55 1.23 1.07 2.49 1.54 3.76l-2.81 1.04Zm-100.89-6.74-2.65-1.4c.64-1.2 1.32-2.39 2.03-3.53l2.54 1.59a60.82 60.82 0 0 0-1.93 3.35l.01-.01Zm97.73-.29c-.61-1.13-1.26-2.25-1.94-3.33l2.54-1.6c.72 1.14 1.41 2.32 2.05 3.51l-2.64 1.42h-.01Zm-93.65-6.26-2.43-1.76a58.82 58.82 0 0 1 2.5-3.21l2.3 1.92c-.83.99-1.62 2.01-2.37 3.05Zm89.53-.26c-.76-1.04-1.56-2.06-2.39-3.03l2.29-1.94c.87 1.03 1.72 2.1 2.52 3.2l-2.42 1.77Zm-84.58-5.66-2.16-2.08c.93-.97 1.92-1.93 2.92-2.83l2.01 2.22c-.95.86-1.88 1.77-2.77 2.69Zm79.59-.23c-.89-.92-1.83-1.82-2.79-2.67l2-2.24c1.01.9 2 1.85 2.94 2.82l-2.15 2.09Zm-73.87-4.95-1.86-2.36c1.06-.84 2.17-1.64 3.28-2.4l1.69 2.48c-1.06.72-2.11 1.49-3.11 2.28Zm68.12-.2c-1.01-.79-2.07-1.55-3.13-2.26l1.67-2.49c1.12.75 2.23 1.56 3.3 2.38l-1.84 2.37Zm-61.74-4.14-1.51-2.59c1.17-.68 2.37-1.33 3.58-1.92l1.33 2.69c-1.15.57-2.29 1.18-3.4 1.82Zm55.32-.17a58.91 58.91 0 0 0-3.42-1.81l1.31-2.7c1.21.59 2.42 1.23 3.6 1.9l-1.49 2.6v.01Zm-48.4-3.24-1.13-2.78c1.25-.51 2.54-.98 3.82-1.4l.93 2.85c-1.22.4-2.44.85-3.62 1.33Zm41.45-.13c-1.2-.48-2.42-.92-3.64-1.31l.92-2.86c1.28.41 2.57.88 3.84 1.38l-1.11 2.79h-.01Zm-34.12-2.27-.73-2.91c1.32-.33 2.65-.62 3.98-.85l.53 2.95c-1.26.22-2.53.5-3.77.81h-.01Zm26.77-.08c-1.24-.3-2.51-.57-3.78-.79l.51-2.96c1.34.23 2.68.51 3.99.83l-.71 2.91-.01.01Zm-19.17-1.27-.32-2.98c1.35-.14 2.71-.24 4.06-.29l.11 3c-1.28.05-2.57.14-3.85.28v-.01Zm11.57-.04c-1.27-.13-2.57-.21-3.85-.25l.09-3c1.36.04 2.72.13 4.06.27l-.3 2.98Z"/></g><defs><clipPath id="a"><path fill="#fff" d="M0 0h317.72v299.19H0z"/></clipPath></defs></svg>