<svg xmlns="http://www.w3.org/2000/svg" width="44" height="32" fill="none"><path fill="#fff" d="M38.01.56C36.35.31 28.35 0 21.99 0 15.63 0 7.64.31 5.97.56 3.08 1.03 1.5 2.33.67 5.68.39 6.8 0 12.98 0 15.33v.52c0 2.36.39 8.53.67 9.66.83 3.35 2.41 4.65 5.3 5.11 1.66.25 9.68.56 16.04.56h-.03c6.36 0 14.37-.31 16.03-.56 2.89-.46 4.47-1.76 5.31-5.11.28-1.13.67-7.3.67-9.66v-.52c0-2.35-.39-8.53-.67-9.65-.84-3.36-2.41-4.65-5.31-5.12Z"/><path fill="#D02628" d="m16.72 9.96 10.55 5.5-10.55 5.77V9.96Z"/></svg>