<svg xmlns="http://www.w3.org/2000/svg" width="14" height="17" fill="none"><path fill="#373737" fill-rule="evenodd" d="M12.147 16.381H1.85c-.91 0-1.651-.734-1.651-1.637V6.619c0-.766.472-1.682 1.098-2.132l4.499-3.228c.674-.484 1.73-.484 2.405 0l4.498 3.228c.626.45 1.098 1.366 1.098 2.132v8.125c0 .903-.74 1.637-1.65 1.637ZM6.998 2.087a.881.881 0 0 0-.497.137L2.003 5.453c-.309.221-.601.788-.601 1.166v8.125c0 .245.201.445.448.445h10.297c.247 0 .448-.2.448-.445V6.619c0-.378-.292-.945-.601-1.166L7.495 2.224a.877.877 0 0 0-.497-.137Z" clip-rule="evenodd"/></svg>