<svg xmlns="http://www.w3.org/2000/svg" width="26" height="26" fill="none"><path fill="#b8b8b8" fill-rule="evenodd" d="m25.155 23.503-5.267-5.27c3.304-4.185 3.027-10.276-.835-14.139A10.627 10.627 0 0 0 11.517.971a10.626 10.626 0 0 0-7.535 3.123c-4.162 4.163-4.162 10.914 0 15.077a10.618 10.618 0 0 0 7.535 3.123 10.61 10.61 0 0 0 6.841-2.486l5.246 5.248a1.094 1.094 0 0 0 1.551 0c.43-.43.43-1.125 0-1.553Zm-7.654-5.884a8.41 8.41 0 0 1-5.984 2.48 8.41 8.41 0 0 1-5.984-2.48c-3.3-3.302-3.3-8.672 0-11.973a8.406 8.406 0 0 1 5.984-2.48c2.26 0 4.386.881 5.984 2.48 3.3 3.301 3.3 8.671 0 11.973Z" clip-rule="evenodd"/></svg>