<svg xmlns="http://www.w3.org/2000/svg" width="83" height="27" fill="none"><path fill="#2A2A2A" d="M6.018 5.81c.295-.68.567-.997.816-.952.272.023.374.34.306.952-.045.77-.09 1.383-.136 1.836-.023.657.125 1.145.442 1.462.227.227.465.329.714.306.272-.045.873-.283 1.802-.714 1.428-.657 2.788-1.009 4.08-1.054.499 0 .725.09.68.272a.555.555 0 0 1-.034.136c-.136.181-.351.272-.646.272-.34 0-1.133.317-2.38.952-.952.476-1.564.895-1.836 1.258-.25.34-.374.884-.374 1.632 0 .657-.159 1.383-.476 2.176-.317.793-.725 1.462-1.224 2.006-.657.703-.986 1.065-.986 1.088 0 .045.26.045.782 0a67.363 67.363 0 0 0 2.006-.204 91.102 91.102 0 0 0 2.448-.374c1.36-.227 2.856-.329 4.488-.306 1.632.023 3.117.159 4.454.408 1.745.317 2.64.533 2.686.646.023.09-.555.136-1.734.136-.59-.023-1.405-.045-2.448-.068a41.16 41.16 0 0 0-3.706-.034c-1.088.023-1.995.09-2.72.204-.725.09-1.972.306-3.74.646-3.355.612-5.259 1.065-5.712 1.36-.453.272-.907.408-1.36.408-.43-.023-.76-.193-.986-.51-.363-.43-.465-.737-.306-.918.159-.204.635-.397 1.428-.578 2.47-.59 4.182-1.847 5.134-3.774.567-1.179.827-2.063.782-2.652-.045-.59-.43-1.133-1.156-1.632-.816-.567-1.303-1.179-1.462-1.836-.159-.68-.034-1.53.374-2.55Zm40.784 2.074a38.66 38.66 0 0 1-.102-2.448c0-.612.011-1.11.034-1.496.045-.408.08-.669.102-.782.045-.136.125-.204.238-.204.317 0 .533.238.646.714.113.476.17 1.45.17 2.924 0 1.927.08 2.958.238 3.094.136.136.669-.181 1.598-.952a45.277 45.277 0 0 1 3.536-2.584c1.383-.93 2.13-1.349 2.244-1.258.09.136-.045.34-.408.612-.793.567-1.881 1.519-3.264 2.856-1.36 1.315-2.221 2.255-2.584 2.822-.363.499-.6.94-.714 1.326-.113.385-.17.884-.17 1.496 0 .363-.023.657-.068.884-.023.204-.057.351-.102.442-.045.09-.102.125-.17.102-.703-.204-1.11-2.72-1.224-7.548Zm-6.256-.986c.09-.181.181-.34.272-.476.09-.136.181-.238.272-.306.09-.09.17-.125.238-.102.635.227.499 1.133-.408 2.72l-.884 1.598 2.38 2.21c1.564 1.405 2.267 2.176 2.108 2.312-.227.068-.703-.09-1.428-.476a15.18 15.18 0 0 1-2.176-1.564.533.533 0 0 1-.136-.102 17.932 17.932 0 0 0-.816-.646 1.597 1.597 0 0 0-.544-.34c-.204-.113-.34-.17-.408-.17-.045 0-.147.057-.306.17-.136.09-.25.204-.34.34-.068.113-.204.329-.408.646a.26.26 0 0 0-.034.102c-.907 1.383-1.643 2.074-2.21 2.074-.136 0-.204-.204-.204-.612 0-.34.317-.986.952-1.938.657-.952 1.485-1.983 2.482-3.094.816-.93 1.349-1.711 1.598-2.346Zm3.23 11.934c.363-.227.691-.34.986-.34.43 0 .986.136 1.666.408.68.25 1.213.544 1.598.884.499.453.68.93.544 1.428-.113.476-.59 1.088-1.428 1.836-.839.77-1.541 1.213-2.108 1.326-.544.113-1.27 0-2.176-.34-.499-.25-.805-.453-.918-.612-.113-.159-.17-.499-.17-1.02 0-.544.193-1.167.578-1.87.408-.703.884-1.27 1.428-1.7Zm3.536 2.142c.113-.43-.011-.737-.374-.918-.476-.227-.975-.25-1.496-.068-.521.159-.986.51-1.394 1.054-.635.839-.85 1.44-.646 1.802.045.09.125.136.238.136.09-.023.453-.034 1.088-.034.499 0 1.02-.204 1.564-.612.544-.408.884-.861 1.02-1.36ZM75.174-1.33c.046-.408.454-.204 1.224.612.703.748 1.156 1.541 1.36 2.38.204.839.136 1.553-.204 2.142-.226.363-.181.816.136 1.36.318.521.692.782 1.122.782.499 0 1.066.181 1.7.544.635.34.986.68 1.054 1.02.09.408.012.76-.238 1.054-.226.295-.714.623-1.462.986-.838.43-1.61.612-2.312.544-.68-.09-1.167-.42-1.462-.986-.204-.453-.283-.816-.238-1.088.046-.272.272-.884.68-1.836.09-.25.09-.385 0-.408-.09-.045-.328-.034-.714.034-.612.136-1.076.136-1.394 0-.43-.159-.43-.408 0-.748.25-.204.59-.34 1.02-.408.386-.09.635-.215.748-.374.136-.159.25-.499.34-1.02.09-.499.09-.93 0-1.292-.068-.363-.26-.873-.578-1.53-.521-1.065-.782-1.655-.782-1.768Zm4.93 9.078c0-.295-.34-.476-1.02-.544-.68-.068-1.167.034-1.462.306-.226.204-.351.487-.374.85 0 .34.114.578.34.714.204.136.669.011 1.394-.374.748-.385 1.122-.703 1.122-.952Zm6.698 3.978c.136-.113.42-.147.85-.102.454.023.726.113.816.272.068.113.012.193-.17.238-.181.045-.442.068-.782.068-.861 0-2.674.351-5.44 1.054-3.377.816-5.938 1.405-7.684 1.768-2.266.521-3.751.93-4.454 1.224-.476.204-.816.306-1.02.306-.181 0-.442-.113-.782-.34-.476-.272-.714-.453-.714-.544 0-.113.374-.317 1.122-.612.748-.317 1.36-.51 1.836-.578.522-.136 1.236-.26 2.142-.374.862-.09 1.36-.193 1.496-.306.09-.045.544-.147 1.36-.306a86.624 86.624 0 0 0 6.086-1.122c.363-.09 1.349-.227 2.958-.408 1.519-.09 2.312-.17 2.38-.238Zm-6.086 3.434c.159-.25.329-.125.51.374.159.43.352 1.553.578 3.366.227 1.79.329 3.015.306 3.672 0 .657.09.986.272.986.476 0 .216.51-.782 1.53-.59.657-1.133 1.02-1.632 1.088-.498.09-1.133-.09-1.904-.544a5.531 5.531 0 0 1-.68-.476 1.411 1.411 0 0 1-.306-.442 1.465 1.465 0 0 1-.102-.578c0-.544-.136-.861-.408-.952-.43-.204-.838-1.802-1.224-4.794-.09-.59-.113-.963-.068-1.122.046-.181.159-.272.34-.272.318 0 .544.193.68.578.159.363.318 1.315.476 2.856.182 1.881.397 2.822.646 2.822.25 0 .635-.295 1.156-.884.59-.544 1.122-.895 1.598-1.054.318-.09.51-.193.578-.306.068-.136.057-.408-.034-.816-.113-.725-.181-1.689-.204-2.89-.022-1.201.046-1.915.204-2.142Zm-.102 8.296c.159-.567.204-.895.136-.986-.045-.045-.385.147-1.02.578-.816.544-1.235 1.077-1.258 1.598-.022.43.272.499.884.204a.86.86 0 0 0 .204-.102c.25-.136.465-.329.646-.578.182-.25.318-.487.408-.714Z"/></svg>