<svg xmlns="http://www.w3.org/2000/svg" width="366" height="125" fill="none"><g clip-path="url(#a)"><path fill="#404041" d="M69.53 79.22c0 2.58 2.12 4.44 4.7 4.44h19.59V67.84H69.53v11.38Zm4.87-7.26h14.58v7.63H74.4v-7.63ZM72.06 58.87c2.84-3.76 4.47-8.68 4.47-14.28H61.22v4.21h10.21c-.19 1.26-.46 2.44-.86 3.57l-10.88.68.94 4.15 7.72-.87c-2.17 2.86-5.42 5.02-9.75 6.56l2.62 3.65c4.38-1.75 8.17-4.2 10.84-7.67ZM84.87 55.88h4.21v9.98h4.69V42.57h-4.69v9.2h-4.21v-8.53h-4.69v22.22h4.69v-9.58ZM130.15 42.57h-4.88V66.4h4.88V42.57ZM103.15 64.7c2.57-.01 5.14-.12 7.71-.28 4.16-.31 7.92-.73 11.25-1.3l-.5-4.02c-2.83.54-6.05.9-9.25 1.12-3.25.18-6.41.26-8.94.26v-4.01h13.86V52.4h-13.86v-3.8h14.54v-4.14h-19.4v15.86c0 2.53 2.06 4.35 4.6 4.37l-.01.01ZM104.95 72.45h20.32v11.01h4.88V68.3h-25.2v4.15ZM155.33 57.68h-4.92v4.7h-16.53v4.07h37.93v-4.07h-16.48v-4.7ZM152.85 67.84c-6.65 0-10.97 4.08-10.97 8.58s4.33 8.62 10.97 8.62c6.64 0 10.97-4.02 10.97-8.62s-4.29-8.58-10.97-8.58Zm0 13.05c-3.43 0-6.1-1.84-6.1-4.47s2.66-4.5 6.1-4.5c3.44 0 6.09 1.93 6.09 4.5 0 2.57-2.66 4.47-6.09 4.47Z"/><path fill="#404041" d="M146.67 52.63c-2.49 1.54-5.46 2.67-8.99 3.34l2.25 3.75c5.79-1.21 10.58-3.7 13.09-6.73 2.58 3.02 7.1 5.52 13.09 6.73l2.26-3.75c-3.57-.73-6.59-1.86-9.03-3.39-2.25-1.41-3.47-2.98-3.66-4.69h10.57v-4.24h-26.64v4.24h10.69c-.18 1.71-1.35 3.28-3.65 4.73l.02.01ZM192.35 42.57h-13.87v4.11h13.87v-4.11ZM197.19 48.3H173.7v4.02h23.49V48.3ZM194.2 60.57c0-3.87-3.79-6.94-8.75-6.94s-8.78 3.07-8.78 6.94c0 3.87 3.79 6.96 8.78 6.96 4.99 0 8.75-3.07 8.75-6.96Zm-13.05 0c0-1.84 1.95-3.25 4.3-3.25 2.35 0 4.29 1.41 4.29 3.25s-1.94 3.25-4.29 3.25-4.3-1.38-4.3-3.25ZM205.91 42.57h-4.89v25.81h4.89v-9.74h6.36v-4.15h-6.36V42.57ZM201.12 73.53h-13.77v-3.7h-4.84v10.26c0 2.57 2.12 4.41 4.69 4.41h18.71V69.83h-4.79v3.7Zm0 7.04h-13.77v-3.11h13.77v3.11ZM215.24 49.83h14.13c-.05 4.24-1.17 7.71-4.11 10.96-2.93 3.25-6.08 5.83-10.73 7.69l3.16 3.83c5.6-2.53 9.21-5.78 12.46-9.98 3.43-4.38 4.55-9.89 4.55-16.79h-19.46v4.29ZM245.44 42.57h-4.88v39.5h4.88v-39.5ZM249.5 63.51h16.52v3.12h-10.2v4.01h20.36v2.72h-20.32v6.37c0 2.57 2.11 4.41 4.68 4.41h21.5v-4.05h-21.35v-2.86h20.37v-10.6h-10.11v-3.12h16.47v-4.06H249.5v4.06ZM263.14 55.34c2.44-1.45 4.2-2.98 5.33-4.61 1.08 1.58 2.84 3.12 5.24 4.57 2.44 1.45 5.15 2.53 8.18 3.21l2.44-3.88c-3.3-.73-6.46-1.87-8.94-3.45-2.49-1.62-4.2-3.7-4.2-5.86v-2.43h-5.42v2.43c0 2.16-1.76 4.24-4.24 5.86-2.49 1.58-5.69 2.71-8.89 3.45l2.44 3.88c2.98-.68 5.69-1.76 8.08-3.17h-.02ZM303.72 78.9v-6.37h-4.97v6.06c0 2.58 2.15 4.42 4.72 4.42h20.79V78.9h-20.54ZM298.85 71.01h4.92v-6.87c4.87-.26 9.79-.63 13-1.08l-.45-4.16c-5.91.73-20 1.44-26.46 1.44l.32 4.21c2.17 0 5.33-.05 8.67-.19V71.01Z"/><path fill="#404041" d="M309.19 70.7h9.29v3.15h4.87V42.57h-4.87v24.06h-9.29v4.07ZM302.82 58.14c5.1 0 9.75-3.06 9.75-7.81s-4.7-7.81-9.75-7.81-9.75 3.11-9.75 7.81c0 4.7 4.59 7.81 9.75 7.81Zm0-11.74c2.66 0 4.83 1.81 4.83 3.93s-2.17 3.97-4.83 3.97-4.83-1.76-4.83-3.97 2.08-3.93 4.83-3.93Z"/><path fill="url(#b)" d="M17.21 5.06c-.26.14-.51.32-.75.47C.26 15.81-4.86 37.16 5.06 53.69c-4.93-8.24-4.54-18.16.16-25.8 2.02-3.26 4.81-6.13 8.33-8.25 3.27-1.95 6.8-3.06 10.35-3.41 5.41-.52 10.84.73 15.45 3.58 3.26 2.01 6.12 4.81 8.24 8.31V2.16C37.9-1.39 26.75-.67 17.21 5.06Z"/><path fill="url(#c)" d="M28.13 23.3h.02s.02-.01.03-.02c6.7-4.01 15.39-1.84 19.41 4.84-2.12-3.5-4.97-6.3-8.24-8.31a24.855 24.855 0 0 0-15.45-3.58c-3.55.35-7.08 1.46-10.35 3.41a24.812 24.812 0 0 0-8.33 8.25c-4.7 7.64-5.09 17.56-.16 25.8.22.36.46.71.68 1.07 9.11 14.02 26.6 19.55 41.85 13.96-6.71 1.88-13.87.53-19.69-3.05a24.577 24.577 0 0 1-8.24-8.35 24.778 24.778 0 0 1-3.43-10.33c-.53-5.41.74-10.84 3.59-15.45 2.01-3.27 4.81-6.11 8.32-8.24h-.01Z"/><path fill="url(#d)" d="M42.76 47.57s-.02.01-.03.02c0 0 0 .01-.02.02-6.71 4-15.41 1.84-19.43-4.86-4.02-6.71-1.84-15.41 4.85-19.44a24.753 24.753 0 0 0-8.32 8.24A24.862 24.862 0 0 0 16.22 47c.35 3.54 1.47 7.07 3.43 10.33 2.11 3.53 4.97 6.33 8.24 8.35 5.83 3.58 12.98 4.93 19.69 3.05V42.76a14.069 14.069 0 0 1-4.82 4.82v-.01Z"/><path fill="#6D6E71" d="M62.67 107.13c-1.01 0-1.93-.39-2.62-1.1-.97-1-.97-2.03-.97-4.28 0-2.25 0-3.28.97-4.28a3.62 3.62 0 0 1 2.62-1.1c1.84 0 3.21 1.16 3.55 3.15H65.1c-.27-1.29-1.15-2.14-2.43-2.14-.68 0-1.33.27-1.77.74-.65.68-.72 1.41-.72 3.62s.07 2.94.72 3.62c.44.48 1.09.74 1.77.74 1.28 0 2.19-.84 2.46-2.14h1.1c-.33 1.99-1.73 3.15-3.55 3.15l-.01.02ZM73.89 107.04l-.82-2.39h-4.48l-.82 2.39h-1.16l3.77-10.57h.92l3.76 10.57h-1.17Zm-3.04-8.95-1.93 5.58h3.83l-1.9-5.58ZM83.83 107.04v-8.03l-2.8 6.37h-.94l-2.85-6.37v8.03h-1.1V96.47h1.1l3.34 7.5 3.25-7.5h1.1v10.57h-1.1ZM90.32 97.48v9.56h-1.1v-9.56h-2.97v-1.01h7.03v1.01h-2.96ZM94.63 107.04V96.47h1.09v10.57h-1.09ZM101.31 107.13c-1.01 0-1.93-.39-2.62-1.1-.97-1-.97-2.03-.97-4.28 0-2.25 0-3.28.97-4.28.69-.71 1.61-1.1 2.62-1.1 1.84 0 3.21 1.16 3.56 3.15h-1.12c-.27-1.29-1.15-2.14-2.43-2.14-.68 0-1.33.27-1.77.74-.65.68-.72 1.41-.72 3.62s.07 2.94.72 3.62c.44.48 1.09.74 1.77.74 1.28 0 2.19-.84 2.46-2.14h1.1c-.33 1.99-1.73 3.15-3.56 3.15l-.01.02ZM115.69 107.04l-.82-2.39h-4.48l-.82 2.39h-1.16l3.77-10.57h.92l3.76 10.57h-1.17Zm-3.04-8.95-1.93 5.58h3.83l-1.9-5.58ZM121.99 107.04v-.88c-.57.77-1.24.97-2.01.97-.72 0-1.35-.25-1.73-.64-.72-.74-.86-1.96-.86-3.1 0-1.14.14-2.36.86-3.1.38-.39 1.01-.64 1.73-.64.78 0 1.43.18 2 .94v-4.11h1.04v10.57H122l-.01-.01Zm-1.79-6.44c-1.54 0-1.79 1.37-1.79 2.79s.25 2.79 1.79 2.79 1.77-1.37 1.77-2.79-.23-2.79-1.77-2.79ZM127.4 107.04h-.92l-2.59-7.31h1.12l1.93 5.86 1.94-5.86h1.13l-2.61 7.31ZM134.76 107.04v-.7c-.57.59-1.09.79-2.04.79s-1.55-.19-2-.67c-.34-.36-.53-.91-.53-1.48 0-1.28.87-2.11 2.45-2.11h2.13v-.7c0-1.07-.52-1.61-1.81-1.61-.9 0-1.37.22-1.78.83l-.71-.67c.63-.85 1.35-1.08 2.51-1.08 1.9 0 2.84.85 2.84 2.44v4.96h-1.06Zm0-3.37h-1.99c-1.06 0-1.59.44-1.59 1.29 0 .85.5 1.25 1.63 1.25.61 0 1.14-.04 1.58-.49.25-.24.36-.65.36-1.26v-.79h.01ZM142.28 107.04v-4.5c0-1.29-.68-1.94-1.74-1.94s-1.76.67-1.76 1.94v4.5h-1.04v-7.31h1.04v.8c.5-.59 1.2-.89 1.99-.89s1.38.24 1.81.68c.5.51.73 1.19.73 2.03v4.68h-1.04l.01.01ZM148.01 107.13c-1.79 0-3.14-1.25-3.14-3.74s1.35-3.74 3.14-3.74c.98 0 1.6.27 2.33 1.08l-.7.68c-.53-.61-.95-.82-1.63-.82-.68 0-1.27.28-1.64.83-.33.47-.46 1.04-.46 1.96 0 .92.13 1.48.46 1.96.38.55.95.83 1.64.83s1.1-.22 1.63-.83l.7.7c-.73.82-1.35 1.08-2.33 1.08v.01ZM152.17 103.67c0 1.6.73 2.52 2.09 2.52.82 0 1.29-.25 1.86-.83l.71.64c-.72.74-1.38 1.13-2.59 1.13-1.87 0-3.1-1.16-3.1-3.74 0-2.36 1.11-3.74 2.91-3.74s2.91 1.37 2.91 3.53v.49h-4.79Zm3.53-2.02c-.27-.67-.91-1.1-1.66-1.1-.75 0-1.38.43-1.65 1.1-.16.4-.19.62-.22 1.22h3.75c-.03-.59-.06-.82-.22-1.22ZM162.81 107.04v-.88c-.58.77-1.24.97-2.01.97-.72 0-1.35-.25-1.73-.64-.72-.74-.87-1.96-.87-3.1 0-1.14.14-2.36.87-3.1.38-.39 1.01-.64 1.73-.64.78 0 1.42.18 2 .94v-4.11h1.04v10.57h-1.02l-.01-.01Zm-1.79-6.44c-1.54 0-1.79 1.37-1.79 2.79s.24 2.79 1.79 2.79 1.77-1.37 1.77-2.79-.23-2.79-1.77-2.79ZM176.73 107.04v-8.03l-2.81 6.37h-.94l-2.85-6.37v8.03h-1.09V96.47h1.09l3.34 7.5 3.25-7.5h1.09v10.57h-1.09.01ZM180.68 103.67c0 1.6.73 2.52 2.09 2.52.82 0 1.3-.25 1.86-.83l.71.64c-.72.74-1.38 1.13-2.59 1.13-1.87 0-3.09-1.16-3.09-3.74 0-2.36 1.11-3.74 2.91-3.74s2.91 1.37 2.91 3.53v.49h-4.8Zm3.53-2.02c-.27-.67-.91-1.1-1.66-1.1-.75 0-1.38.43-1.66 1.1-.16.4-.18.62-.21 1.22h3.74c-.03-.59-.06-.82-.22-1.22h.01ZM189.83 107.13c-1.78 0-3.14-1.25-3.14-3.74s1.35-3.74 3.14-3.74c.98 0 1.6.27 2.34 1.08l-.71.68c-.53-.61-.95-.82-1.63-.82-.68 0-1.27.28-1.64.83-.33.47-.46 1.04-.46 1.96 0 .92.13 1.48.46 1.96.37.55.95.83 1.64.83s1.1-.22 1.63-.83l.71.7c-.74.82-1.36 1.08-2.34 1.08v.01ZM198.1 107.04v-4.51c0-1.28-.66-1.93-1.73-1.93-1.07 0-1.77.67-1.77 1.93v4.51h-1.04V96.47h1.04v4.07c.52-.61 1.19-.89 1.99-.89 1.6 0 2.55 1.05 2.55 2.7v4.69h-1.04ZM205.1 107.04v-.7c-.58.59-1.1.79-2.05.79-.95 0-1.56-.19-2-.67-.35-.36-.53-.91-.53-1.48 0-1.28.86-2.11 2.45-2.11h2.13v-.7c0-1.07-.52-1.61-1.81-1.61-.91 0-1.37.22-1.79.83l-.7-.67c.63-.85 1.35-1.08 2.51-1.08 1.9 0 2.84.85 2.84 2.44v4.96h-1.05Zm0-3.37h-1.99c-1.06 0-1.58.44-1.58 1.29 0 .85.5 1.25 1.63 1.25.6 0 1.14-.04 1.58-.49.25-.24.36-.65.36-1.26v-.79ZM210.07 107.04c-1.21 0-1.81-.88-1.81-1.96v-4.48h-.89v-.82h.89v-2.29h1.04v2.29h1.51v.82h-1.51v4.45c0 .67.3 1.07.97 1.07h.54v.92h-.74ZM216.24 101.13c-.39-.4-.67-.53-1.22-.53-1.04 0-1.7.85-1.7 1.96v4.48h-1.04v-7.31h1.04v.89c.39-.61 1.17-.98 1.99-.98.68 0 1.19.16 1.7.68l-.76.8-.01.01ZM221.83 106.29c-.49.51-1.17.83-2.03.83-.86 0-1.54-.33-2.03-.83-.72-.76-.86-1.78-.86-2.91 0-1.13.14-2.15.86-2.91.49-.5 1.17-.83 2.03-.83.86 0 1.54.33 2.03.83.72.76.87 1.78.87 2.91 0 1.13-.15 2.15-.87 2.91Zm-.73-5.17c-.33-.34-.79-.53-1.3-.53s-.95.19-1.28.53c-.52.54-.58 1.44-.58 2.26 0 .82.06 1.72.58 2.26.33.34.78.53 1.28.53s.96-.19 1.3-.53c.52-.53.56-1.44.56-2.26 0-.82-.04-1.72-.56-2.26ZM228.87 107.04v-4.5c0-1.29-.67-1.94-1.74-1.94-1.07 0-1.76.67-1.76 1.94v4.5h-1.04v-7.31h1.04v.8c.5-.59 1.2-.89 1.99-.89s1.38.24 1.81.68c.5.51.73 1.19.73 2.03v4.68h-1.04l.01.01ZM231.79 97.66v-1.2h1.17v1.2h-1.17Zm.06 9.38v-7.31h1.04v7.31h-1.04ZM237.67 107.13c-1.79 0-3.14-1.25-3.14-3.74s1.35-3.74 3.14-3.74c.98 0 1.59.27 2.33 1.08l-.7.68c-.53-.61-.95-.82-1.63-.82-.68 0-1.27.28-1.64.83-.33.47-.46 1.04-.46 1.96 0 .92.13 1.48.46 1.96.37.55.95.83 1.64.83s1.09-.22 1.63-.83l.7.7c-.74.82-1.35 1.08-2.33 1.08v.01ZM243.63 107.13c-1.2 0-2.13-.28-2.91-1.06l.69-.71c.56.61 1.33.85 2.2.85 1.16 0 1.89-.43 1.89-1.29 0-.64-.36-1-1.18-1.07l-1.17-.1c-1.38-.12-2.12-.76-2.12-1.96 0-1.33 1.09-2.14 2.61-2.14 1.01 0 1.91.25 2.55.79l-.67.7c-.5-.4-1.15-.58-1.89-.58-1.04 0-1.59.46-1.59 1.2 0 .62.35 1 1.24 1.07l1.14.1c1.24.12 2.09.61 2.09 1.98s-1.17 2.23-2.88 2.23v-.01ZM254.17 97.48v9.56h-1.09v-9.56h-2.97v-1.01h7.03v1.01h-2.97ZM257.84 103.67c0 1.6.73 2.52 2.09 2.52.82 0 1.29-.25 1.86-.83l.7.64c-.72.74-1.38 1.13-2.59 1.13-1.87 0-3.1-1.16-3.1-3.74 0-2.36 1.11-3.74 2.91-3.74s2.91 1.37 2.91 3.53v.49h-4.78Zm3.53-2.02c-.27-.67-.91-1.1-1.66-1.1-.75 0-1.38.43-1.65 1.1-.16.4-.19.62-.22 1.22h3.74c-.03-.59-.05-.82-.21-1.22ZM267 107.13c-1.79 0-3.14-1.25-3.14-3.74s1.35-3.74 3.14-3.74c.98 0 1.6.27 2.33 1.08l-.71.68c-.53-.61-.95-.82-1.63-.82-.68 0-1.27.28-1.64.83-.33.47-.46 1.04-.46 1.96 0 .92.13 1.48.46 1.96.37.55.95.83 1.64.83s1.1-.22 1.63-.83l.71.7c-.74.82-1.35 1.08-2.33 1.08v.01ZM275.26 107.04v-4.51c0-1.28-.66-1.93-1.72-1.93s-1.77.67-1.77 1.93v4.51h-1.04V96.47h1.04v4.07c.52-.61 1.19-.89 1.99-.89 1.6 0 2.55 1.05 2.55 2.7v4.69h-1.05ZM282.78 107.04v-4.5c0-1.29-.68-1.94-1.74-1.94s-1.76.67-1.76 1.94v4.5h-1.04v-7.31h1.04v.8c.5-.59 1.19-.89 1.99-.89s1.38.24 1.81.68c.5.51.73 1.19.73 2.03v4.68h-1.04l.01.01ZM290.31 106.29c-.49.51-1.17.83-2.03.83-.86 0-1.54-.33-2.03-.83-.72-.76-.86-1.78-.86-2.91 0-1.13.14-2.15.86-2.91.49-.5 1.17-.83 2.03-.83.86 0 1.54.33 2.03.83.72.76.86 1.78.86 2.91 0 1.13-.14 2.15-.86 2.91Zm-.73-5.17c-.34-.34-.79-.53-1.3-.53s-.95.19-1.28.53c-.52.54-.57 1.44-.57 2.26 0 .82.05 1.72.57 2.26.33.34.78.53 1.28.53s.96-.19 1.3-.53c.52-.53.56-1.44.56-2.26 0-.82-.04-1.72-.56-2.26ZM294.58 107.04c-1.23 0-1.8-.83-1.8-1.95v-8.62h1.04v8.58c0 .71.23 1.07.95 1.07h.56v.92h-.75ZM300.77 106.29c-.48.51-1.16.83-2.03.83-.87 0-1.54-.33-2.03-.83-.72-.76-.86-1.78-.86-2.91 0-1.13.15-2.15.86-2.91.49-.5 1.17-.83 2.03-.83.86 0 1.54.33 2.03.83.72.76.87 1.78.87 2.91 0 1.13-.14 2.15-.87 2.91Zm-.73-5.17c-.33-.34-.79-.53-1.3-.53s-.95.19-1.28.53c-.52.54-.58 1.44-.58 2.26 0 .82.06 1.72.58 2.26.33.34.78.53 1.28.53s.97-.19 1.3-.53c.52-.53.56-1.44.56-2.26 0-.82-.04-1.72-.56-2.26ZM305.56 110.39c-1.06 0-1.65-.28-2.4-.98l.68-.68c.52.48.88.73 1.7.73 1.37 0 1.94-.99 1.94-2.24v-1.15c-.57.76-1.22.95-1.98.95-.72 0-1.34-.27-1.71-.65-.71-.73-.87-1.86-.87-3.04s.16-2.31.87-3.04c.38-.39 1.01-.64 1.73-.64.78 0 1.41.18 1.99.95v-.86h1.02v7.53c0 1.81-1.1 3.13-2.95 3.13l-.02-.01Zm.16-9.8c-1.54 0-1.77 1.37-1.77 2.73 0 1.36.23 2.73 1.77 2.73s1.75-1.37 1.75-2.73c0-1.36-.21-2.73-1.75-2.73ZM312.28 108.8c-.15.4-.3.67-.5.86-.38.37-.88.51-1.38.51h-.45v-.95h.32c.72 0 .93-.24 1.17-.91l.5-1.43-2.55-7.16h1.12l1.95 5.86 1.93-5.86h1.12l-3.22 9.07-.01.01ZM319.58 107.04V96.47h1.1v10.57h-1.1ZM327.42 107.04v-4.5c0-1.29-.68-1.94-1.74-1.94s-1.76.67-1.76 1.94v4.5h-1.04v-7.31h1.04v.8c.5-.59 1.19-.89 1.98-.89s1.38.24 1.82.68c.5.51.74 1.19.74 2.03v4.68h-1.04v.01ZM332.63 107.13c-1.2 0-2.13-.28-2.91-1.06l.69-.71c.56.61 1.33.85 2.2.85 1.16 0 1.88-.43 1.88-1.29 0-.64-.36-1-1.18-1.07l-1.16-.1c-1.38-.12-2.12-.76-2.12-1.96 0-1.33 1.09-2.14 2.6-2.14 1.01 0 1.92.25 2.55.79l-.68.7c-.5-.4-1.15-.58-1.89-.58-1.04 0-1.59.46-1.59 1.2 0 .62.35 1 1.24 1.07l1.13.1c1.24.12 2.09.61 2.09 1.98s-1.17 2.23-2.88 2.23l.03-.01ZM338.81 107.04c-1.21 0-1.81-.88-1.81-1.96v-4.48h-.9v-.82h.9v-2.29h1.04v2.29h1.51v.82h-1.51v4.45c0 .67.3 1.07.96 1.07h.55v.92h-.74ZM340.97 97.66v-1.2h1.17v1.2h-1.17Zm.06 9.38v-7.31h1.04v7.31h-1.04ZM346.08 107.04c-1.21 0-1.82-.88-1.82-1.96v-4.48h-.89v-.82h.89v-2.29h1.04v2.29h1.51v.82h-1.51v4.45c0 .67.3 1.07.96 1.07h.55v.92h-.74.01ZM352.77 107.04v-.82c-.5.59-1.21.91-2 .91s-1.4-.24-1.83-.68c-.5-.5-.72-1.2-.72-2.05v-4.66h1.04v4.5c0 1.29.66 1.94 1.73 1.94 1.07 0 1.77-.67 1.77-1.94v-4.5h1.04v7.31h-1.02l-.01-.01ZM357.8 107.04c-1.21 0-1.82-.88-1.82-1.96v-4.48h-.89v-.82h.89v-2.29h1.04v2.29h1.51v.82h-1.51v4.45c0 .67.3 1.07.96 1.07h.55v.92h-.73ZM360.55 103.67c0 1.6.73 2.52 2.09 2.52.82 0 1.3-.25 1.86-.83l.71.64c-.72.74-1.38 1.13-2.59 1.13-1.87 0-3.1-1.16-3.1-3.74 0-2.36 1.11-3.74 2.91-3.74s2.91 1.37 2.91 3.53v.49h-4.79Zm3.53-2.02c-.27-.67-.91-1.1-1.66-1.1-.75 0-1.38.43-1.66 1.1-.16.4-.18.62-.21 1.22h3.74c-.03-.59-.06-.82-.21-1.22ZM60.55 118.19v6.44h-1.03v-6.44h-.91v-.82h.91v-1.38c0-1.08.58-1.96 1.8-1.96h.75v.92h-.57c-.66 0-.95.4-.95 1.07v1.35h1.51v.82h-1.51ZM67.5 123.89c-.49.5-1.16.83-2.03.83-.87 0-1.54-.33-2.03-.83-.72-.76-.87-1.78-.87-2.91 0-1.13.14-2.15.87-2.91.49-.5 1.17-.83 2.03-.83.86 0 1.54.33 2.03.83.72.76.86 1.78.86 2.91 0 1.13-.14 2.15-.86 2.91Zm-.74-5.16a1.79 1.79 0 0 0-1.29-.54c-.5 0-.96.19-1.28.54-.52.53-.58 1.44-.58 2.26 0 .82.06 1.72.58 2.26.33.34.78.53 1.28.53s.96-.19 1.29-.53c.52-.53.56-1.44.56-2.26 0-.82-.05-1.72-.56-2.26ZM73.96 118.73c-.39-.4-.67-.54-1.22-.54-1.04 0-1.7.85-1.7 1.96v4.48h-1.03v-7.3h1.03v.89c.39-.61 1.17-.98 1.99-.98.67 0 1.19.17 1.69.68l-.76.8v.01ZM81.89 124.72c-1.01 0-1.93-.39-2.62-1.1-.96-.99-.96-2.03-.96-4.28 0-2.25 0-3.28.96-4.27a3.62 3.62 0 0 1 2.62-1.1c1.84 0 3.21 1.16 3.56 3.15h-1.12c-.27-1.29-1.15-2.14-2.43-2.14-.68 0-1.33.27-1.77.74-.65.68-.72 1.41-.72 3.62s.08 2.94.72 3.62c.44.48 1.09.74 1.77.74 1.28 0 2.19-.85 2.46-2.14h1.1c-.33 1.99-1.73 3.15-3.56 3.15l-.01.01ZM91.64 123.89c-.49.5-1.16.83-2.03.83-.87 0-1.54-.33-2.03-.83-.72-.76-.87-1.78-.87-2.91 0-1.13.14-2.15.87-2.91.49-.5 1.17-.83 2.03-.83.86 0 1.54.33 2.03.83.72.76.87 1.78.87 2.91 0 1.13-.14 2.15-.87 2.91Zm-.73-5.16a1.79 1.79 0 0 0-1.29-.54c-.5 0-.95.19-1.28.54-.52.53-.58 1.44-.58 2.26 0 .82.06 1.72.58 2.26.33.34.78.53 1.28.53s.97-.19 1.29-.53c.52-.53.57-1.44.57-2.26 0-.82-.05-1.72-.57-2.26ZM103.25 124.64v-4.5c0-1.29-.67-1.95-1.74-1.95-1.07 0-1.77.67-1.77 1.83v4.62H98.7v-4.5c0-1.29-.68-1.95-1.74-1.95s-1.77.67-1.77 1.95v4.5h-1.03v-7.3h1.03v.8c.5-.59 1.21-.89 2-.89.98 0 1.74.42 2.17 1.22.55-.8 1.34-1.22 2.34-1.22.76 0 1.4.25 1.82.68.5.51.76 1.19.76 2.03v4.68h-1.04.01ZM115.34 124.64v-4.5c0-1.29-.68-1.95-1.74-1.95s-1.77.67-1.77 1.83v4.62h-1.04v-4.5c0-1.29-.68-1.95-1.74-1.95s-1.77.67-1.77 1.95v4.5h-1.04v-7.3h1.04v.8c.5-.59 1.21-.89 2-.89.98 0 1.74.42 2.17 1.22.54-.8 1.34-1.22 2.33-1.22.77 0 1.4.25 1.83.68.5.51.76 1.19.76 2.03v4.68h-1.04.01ZM118.96 121.27c0 1.6.74 2.52 2.09 2.52.82 0 1.29-.25 1.85-.83l.71.64c-.72.74-1.38 1.13-2.59 1.13-1.87 0-3.1-1.16-3.1-3.74 0-2.36 1.11-3.74 2.91-3.74s2.91 1.37 2.91 3.53v.49h-4.78Zm3.53-2.02c-.28-.67-.91-1.1-1.66-1.1-.75 0-1.38.43-1.66 1.1-.16.4-.19.62-.22 1.22h3.75c-.03-.59-.06-.82-.22-1.22h.01ZM129.33 118.73c-.39-.4-.68-.54-1.22-.54-1.04 0-1.7.85-1.7 1.96v4.48h-1.04v-7.3h1.04v.89c.39-.61 1.17-.98 1.99-.98.68 0 1.19.17 1.7.68l-.76.8-.01.01ZM133.12 124.72c-1.79 0-3.14-1.24-3.14-3.74s1.35-3.74 3.14-3.74c.98 0 1.6.27 2.33 1.08l-.71.68c-.53-.61-.95-.82-1.63-.82-.68 0-1.27.28-1.64.83-.33.48-.46 1.04-.46 1.96 0 .92.13 1.48.46 1.96.37.55.95.83 1.64.83s1.09-.22 1.63-.83l.71.7c-.74.82-1.36 1.08-2.33 1.08v.01ZM136.79 115.25v-1.2h1.17v1.2h-1.17Zm.06 9.38v-7.3h1.04v7.3h-1.04ZM143.93 124.64v-.7c-.58.59-1.09.79-2.04.79s-1.56-.19-2-.67c-.35-.36-.53-.91-.53-1.48 0-1.28.86-2.11 2.45-2.11h2.13v-.7c0-1.07-.52-1.6-1.81-1.6-.91 0-1.36.22-1.78.83l-.71-.67c.63-.85 1.35-1.08 2.51-1.08 1.9 0 2.83.85 2.83 2.44v4.96h-1.04l-.01-.01Zm0-3.37h-1.99c-1.06 0-1.58.45-1.58 1.29 0 .84.5 1.25 1.62 1.25.6 0 1.14-.04 1.58-.49.24-.24.36-.65.36-1.26v-.79h.01ZM148.68 124.64c-1.24 0-1.8-.83-1.8-1.94v-8.62h1.04v8.58c0 .71.23 1.07.95 1.07h.56v.92h-.75v-.01ZM150.55 115.25v-1.2h1.17v1.2h-1.17Zm.06 9.38v-7.3h1.03v7.3h-1.03ZM153.1 124.64v-.92l3.95-5.43h-3.73v-.95h4.93v.91l-3.96 5.45h3.96v.95h-5.14l-.01-.01ZM163.73 124.64v-.7c-.58.59-1.1.79-2.05.79-.95 0-1.55-.19-2-.67-.34-.36-.53-.91-.53-1.48 0-1.28.87-2.11 2.45-2.11h2.13v-.7c0-1.07-.52-1.6-1.82-1.6-.9 0-1.37.22-1.78.83l-.7-.67c.63-.85 1.35-1.08 2.5-1.08 1.9 0 2.84.85 2.84 2.44v4.96h-1.04v-.01Zm0-3.37h-1.99c-1.06 0-1.58.45-1.58 1.29 0 .84.5 1.25 1.63 1.25.6 0 1.14-.04 1.58-.49.25-.24.36-.65.36-1.26v-.79ZM168.69 124.64c-1.21 0-1.81-.87-1.81-1.96v-4.48h-.89v-.82h.89v-2.29h1.04v2.29h1.51v.82h-1.51v4.46c0 .67.3 1.07.97 1.07h.55v.92h-.74l-.01-.01ZM170.86 115.25v-1.2h1.16v1.2h-1.16Zm.06 9.38v-7.3h1.04v7.3h-1.04ZM178.53 123.89c-.49.5-1.17.83-2.03.83-.86 0-1.54-.33-2.03-.83-.72-.76-.86-1.78-.86-2.91 0-1.13.14-2.15.86-2.91.49-.5 1.17-.83 2.03-.83.86 0 1.54.33 2.03.83.72.76.86 1.78.86 2.91 0 1.13-.14 2.15-.86 2.91Zm-.74-5.16a1.79 1.79 0 0 0-1.29-.54c-.5 0-.95.19-1.28.54-.52.53-.58 1.44-.58 2.26 0 .82.06 1.72.58 2.26.33.34.78.53 1.28.53s.96-.19 1.29-.53c.52-.53.56-1.44.56-2.26 0-.82-.04-1.72-.56-2.26ZM185.57 124.64v-4.5c0-1.29-.68-1.95-1.74-1.95s-1.76.67-1.76 1.95v4.5h-1.04v-7.3h1.04v.8c.5-.59 1.2-.89 1.99-.89s1.38.24 1.81.68c.5.51.74 1.19.74 2.03v4.68h-1.04Z"/></g><defs><linearGradient id="b" x1="3.52" x2="29.09" y1="37.17" y2="18.89" gradientUnits="userSpaceOnUse"><stop stop-color="#002461"/><stop offset="1" stop-color="#00529C"/></linearGradient><linearGradient id="c" x1="20.61" x2="46.63" y1="51.79" y2="31.61" gradientUnits="userSpaceOnUse"><stop stop-color="#23B0DC"/><stop offset=".64" stop-color="#0A85B7"/><stop offset="1" stop-color="#0072A7"/></linearGradient><linearGradient id="d" x1="39.28" x2="16.19" y1="55.6" y2="33.6" gradientUnits="userSpaceOnUse"><stop stop-color="#8DC63F"/><stop offset=".2" stop-color="#6EB84B"/><stop offset=".75" stop-color="#1F976C"/><stop offset="1" stop-color="#008A7A"/></linearGradient><clipPath id="a"><path fill="#fff" d="M0 0h365.33v124.72H0z"/></clipPath></defs></svg>